<?xml version="1.0" encoding="iso-8859-1"?>
<!-- Generator: Adobe Illustrator 19.0.0, SVG Export Plug-In . SVG Version: 6.00 Build 0)  -->
<svg version="1.1" id="Capa_1" xmlns="http://www.w3.org/2000/svg" xmlns:xlink="http://www.w3.org/1999/xlink" x="0px" y="0px"
	 viewBox="0 0 512 512" style="enable-background:new 0 0 512 512;" xml:space="preserve">
<g>
	<g>
		<polygon points="206.733,126.398 206.733,192.8 223.866,192.8 273.134,192.8 273.134,126.398 		"/>
	</g>
</g>
<g>
	<g>
		<polygon points="288.134,222.8 238.866,222.8 238.866,289.199 305.267,289.199 305.267,222.8 		"/>
	</g>
</g>
<g>
	<g>
		<path d="M443.677,4.741C440.842,1.717,436.88,0,432.733,0H79.265c-4.146,0-8.108,1.717-10.943,4.741
			c-2.836,3.025-4.293,7.09-4.025,11.228l8.18,126.398c0,0.001,0,0.001,0,0.001l23.01,355.601
			C95.996,505.86,102.546,512,110.454,512h291.09c7.908,0,14.458-6.14,14.969-14.031l23.01-355.601c0,0,0,0,0-0.001l8.18-126.398
			C447.97,11.831,446.513,7.767,443.677,4.741z M410.493,126.398H303.134V192.8h17.133c8.284,0,15,6.716,15,15v96.399
			c0,8.284-6.716,15-15,15h-96.4c-8.284,0-15-6.716-15-15V222.8h-17.133c-8.284,0-15-6.716-15-15v-81.401h-75.229L95.267,30h321.465
			L410.493,126.398z"/>
	</g>
</g>
<g>
</g>
<g>
</g>
<g>
</g>
<g>
</g>
<g>
</g>
<g>
</g>
<g>
</g>
<g>
</g>
<g>
</g>
<g>
</g>
<g>
</g>
<g>
</g>
<g>
</g>
<g>
</g>
<g>
</g>
</svg>
